<svg xmlns="http://www.w3.org/2000/svg" viewBox="0 0 64 64"><rect width="64" height="64" rx="14" fill="#412F21"/><g transform="translate(8 20.8) scale(0.367)" fill="#F2E5C2"><g><path d="M62.29,19.87v.63c.09.09.12.28.12.47s-.03.41-.03.44l-.41.35c0,1.69-1.63,2.26-2.7,3.33-.6.63-1.16.44-1.88.72h-1.04c-.75.38-1.22.41-1.91.41h-.31c-.06,0-.22.06-.28.09l-.16-.09h-.38c-.82,0-1.38-.06-1.95-.19-.41-.06-1.6-.19-2.35-.19-.03,0-.25-.09-.31-.13h-1.1c-1.29-1.07-1.32-.06-1.32-1.82v-.25c0-.09-.12-.28-.19-.31v-1.1c0-.28-.03-.66-.22-.82v-.85l-.09-.16c0-.6.63-.75,1.1-.75.63,0,2.01,2.6,2.42,3.17h1.35c.47.31.94,1,1.54,1l.16-.09h.88c.16,0,.19-.22.38-.22.16,0,.22.19.38.22l.25-.13c.56.03,1,.03,1.57.03.88,0,3.2-1.44,3.2-2.42v-1.16c0-.53-1.69-2.79-2.2-2.79h-.44c-.56,0-.63-.25-.97-.6-2.35-.63-4.61-1.63-6.91-2.51-.85-1.04-1.6-2.13-2.39-3.17v-.69s.09,0,.09-.06c-.13-.28-.41-.85-.41-1.13,0-1.57,2.45-5.15,3.99-5.46.09-.03.19-.03.28-.03.16,0,.35.03.5.03.38,0,.66-.22.91-.5.44-.06.82-.22,1.26-.22h.5l.22.13.09-.09h.94l.09.09h1.1l.09-.13h1.82c.78,0,1.1.6,3.11.6.16.25.34.47.6.63v.75c0,.38-.28.66-.28,1l.09.22v.66l-.09.22.09.22v.97c-.13.16-.25.31-.41.41h-.69c0-1.32-2.86-2.79-4.02-2.79-.97,0-1.82-.19-2.83-.19l-.16-.09c-.69,0-3.67,1.22-3.7,1.95l.25.28c-.16.16-.38.44-.38.66,0,1.07,2.98,3.8,4.08,3.8.03,0,.09-.03.13-.03.09,0,.22-.09.31-.09.44,0,1.76.66,2.07,1h1.35c1.07.82,2.42,1.16,3.45,2.01.35.25.38.66.53,1.04.12.28.28.53.66.63.16.31.6,1.69.63,1.69v.85c-.06,0-.09.06-.09.09,0,.06.06.19.09.25l-.09.22Z"/><path d="M71.98,25.3c-.53.03-1.26,0-1.57.53h-.97l-.16.09c-.47-.03-.91-.25-1.29-.5h-.85c-.69-.35-2.1-1.07-2.1-1.95l.09-.16c-.44-.6-1.19-1.85-1.19-2.57,0-.35.09-.72.09-1.07l-.09-.13c.19-.63.5-1.32.5-1.98,0-.19-.03-.38-.09-.53.88-2.01,2.29-4.05,4.71-4.05h.13l.13-.09.41.09.31-.09c.22.13.44.25.66.28l.12-.09h.97c1,.66,1.82,1.57,2.6,2.51v.66c-1.73,1.22-3.77,1.92-5.84,2.32-.31.6-.94.94-1.6,1.07l-.13.35c0,1.32,2.32,2.92,3.52,2.95l.16-.09.28.03c0,.19.16.25.31.25,0,0,.19-.09.22-.09,1.44,0,2.2-1.1,2.76-1.1.28,0,.69.16.69.5,0,.82-2.2,2.29-2.79,2.86ZM69.69,14.98h-1.07l-.19.41c-.13-.03-.25-.19-.38-.19-1.26,0-1.19,1.66-1.63,2.48v.19c.16.16.06.66.25.66.75,0,3.3-1.91,3.92-2.48,0-.53-.63-.69-.91-1.07Z"/><path d="M84,25.3c-.53.03-1.26,0-1.57.53h-.97l-.16.09c-.47-.03-.91-.25-1.29-.5h-.85c-.69-.35-2.1-1.07-2.1-1.95l.09-.16c-.44-.6-1.19-1.85-1.19-2.57,0-.35.09-.72.09-1.07l-.09-.13c.19-.63.5-1.32.5-1.98,0-.19-.03-.38-.09-.53.88-2.01,2.29-4.05,4.71-4.05h.13l.13-.09.41.09.31-.09c.22.13.44.25.66.28l.12-.09h.97c1,.66,1.82,1.57,2.6,2.51v.66c-1.73,1.22-3.77,1.92-5.84,2.32-.31.6-.94.94-1.6,1.07l-.13.35c0,1.32,2.32,2.92,3.52,2.95l.16-.09.28.03c0,.19.16.25.31.25,0,0,.19-.09.22-.09,1.44,0,2.2-1.1,2.76-1.1.28,0,.69.16.69.5,0,.82-2.2,2.29-2.79,2.86ZM81.71,14.98h-1.07l-.19.41c-.13-.03-.25-.19-.38-.19-1.26,0-1.19,1.66-1.63,2.48v.19c.16.16.06.66.25.66.75,0,3.3-1.91,3.92-2.48,0-.53-.63-.69-.91-1.07Z"/><path d="M101.39,23.42c-.82.6-2.86,2.42-3.8,2.42-.57,0-.85-1.07-.85-1.51,0-.25.28-.47.28-.72,0-.16-.09-.25-.25-.25-.35,0-2.23,1.91-3.04,2.29h-1.44c-1.7,0-4.21-3.3-4.21-4.9v-.75l.09-.28c0-.19-.06-.38-.19-.53.03-.31.31-.69.31-.91,0-.13-.13-.25-.13-.41,0-.6.41-1.07.41-2.26,1.41-1.26,1.73-2.98,3.92-2.98.19,0,.34-.03.5-.13.72.03,1.29.6,1.98.6.16,0,.31-.09.47-.09.31,0,.6.22.94.22.31,0,.41-.31.63-.44v-.25c0-.19-.16-.5-.28-.63v-1.07l.09-.13-.09-.09v-1.66c0-1.1-2.1-.41-2.1-1.76,0-1.98,3.04-1.54,3.39-2.82h2.48c.09.19.31.53.31.72,0,.5-1.19,1.16-1.19,2.04,0,.31.19.56.19.85l-.09.19v.82l.09.06c-.16.22-.31.47-.31.72,0,.63.22,1.26.22,1.51s-.19.47-.19.72l.09.22c-.09.16-.22.31-.22.5,0,.28.31.5.31.78l-.09.19.09.13v.66l-.09.22v.16c0,.72-.22.85-.22,1.44l.09.19v.41c.03.09.06.25.13.35v1.41s-.09.03-.09.06v.63l-.12.19.09.16c0,.19-.03.44-.03.69,0,.82.13,1.79.94,1.79.22,0,.38-.22.6-.22.38,0,.5.53.5.82,0,.22-.09.44-.12.66ZM97.03,18.43c.06,0,.09-.06.09-.09v-1.22c-1.35-1-2.42-2.42-4.21-2.42-.91,0-2.64,1.26-2.64,2.23v.94l.09.22c0,2.32,1.54,4.3,3.83,4.3.13,0,.28,0,.44-.03l.25.09c.72,0,2.13-2.23,2.13-2.89,0-.13-.09-.25-.09-.38,0-.22.19-.38.22-.6l-.13-.16ZM98.82,19.78l-.19.09v.19h.19v-.28Z"/></g><g><path d="M114.51,14.44c0,.28.03.44.03.6s-.03.31-.16.56c-.28,0-.53.09-.82.09-.35,0-.63-.31-.97-.31h-1.13c0,.06-.06.09-.09.13h-.6c-.16.35-.34.66-.34,1.07l.09.13v1.13s-.09.06-.09.09l.19.28v.75l-.09.22v.22c0,.53-.09.47-.09.66,0,.44.28.79.28,1.19l-.09.25c0,.35.6,1.35,1.1,1.35.06-.03.22-.09.31-.09.12,0,.25.09.38.09.53,0,1.13-.79,1.6-.79l.41.31v.94l.09.03c-.38,1.38-1.63,2.48-3.08,2.48-.16,0-.31-.09-.47-.09-.19,0-.28.28-.47.28-.5,0-2.57-1.66-2.92-2.1-.06-.28-.09-.53-.22-.78l.09-.22c0-.22-.03-.41-.03-.63l.13-.25v-1.44c.12-.16.19-.38.19-.56,0-.28,0-.63-.19-.88v-.66l.09-.25c0-.22-.03-.41-.03-.6,0-.38.03-.75.03-1.16,0-.31-.12-.66-.31-.88h-.85l-.13.09-.12-.09h-.75c-.12-.5-.31-.94-.31-1.44,0-.28.28-1,.5-1.16h1.44c1.07-1.1,1.57-2.64,2.86-3.58h.66c.13.22.41.94.41,1.16s-.19.72-.19,1.26c0,.13-.06.35-.12.53v.69c.16.06.28.16.41.16.34,0,.6-.31.94-.31.22,0,.41.09.63.09.16,0,.31-.06.44-.19.19,0,.34.03.53.03.06,0,.25,0,.25-.13.22.09.41.25.6.41v.75l.09.19c0,.13-.09.25-.09.38Z"/><path d="M128.42,19.34l-.09.09v1.1c0,1.26-2.1,4.9-3.48,4.9l-.22-.09c-.28,0-.5.19-.79.19l-.31-.19-.28.19h-.53c-.12,0-.28.06-.34.22h-1.38c-.72-.63-1.6-.69-2.35-1.13-.75-.41-1.32-1.79-1.82-2.48v-.63c-.19-.06-.22-.25-.22-.5,0-.19,0-.41-.28-.44l.09-.41-.09-.19v-.97c.25-.38.28-.5.28-.78v-.41l.22-.31c0-.25-.09-.47-.09-.69,0-1.04,1.98-2.86,2.7-3.58.63-.03,1.16-.5,1.82-.5l.19.09.25-.09c.34,0,.85.38,1.13.6.19,0,.41-.09.47-.31h.47c.35.22.41.25.47.25.09,0,.16-.03.44-.03,1.79,0,3.8,4.14,3.8,5.84,0,.09-.03.19-.03.28ZM125.43,19.24v-.75c-.31-.44-.19-1.04-.5-1.48-.34-.5-1.07-.69-1.19-1.32l-.16.03c-.25,0-.44-.19-.63-.35h-.66l-.13-.19h-.79c-1.32,0-2.42,1.48-2.42,2.67l.12.25-.22.56v.88c.53.91.72,2.07,1.48,2.82.38.38,1.47.97,2.01.97l.16-.09.09.09c1.48-.03,2.73-1.22,2.73-2.64v-.25l.09-.22v-.66l.12-.16-.12-.19ZM126.03,16.8l-.19.09v.19h.19v-.28Z"/></g><path d="M0,57.82c.73-4.62,1.44-9.09,2.13-13.4.69-4.32,1.29-8.21,1.79-11.67.51-3.46.91-6.29,1.22-8.48.3-2.19.46-3.46.46-3.83,0-1.58-.85-2.37-2.55-2.37H.55l.36-2.31c.85,0,1.85-.02,3.01-.06,1.16-.04,2.34-.09,3.56-.15,1.22-.06,2.29-.11,3.22-.15l.55.73c-.53,2.27-1.08,4.76-1.67,7.48-.59,2.72-1.15,5.49-1.7,8.33-.55,2.84-1.06,5.6-1.55,8.3-.49,2.7-.89,5.18-1.22,7.45l.18.12c1.38-2.92,2.63-5.39,3.77-7.42,1.13-2.03,2.26-3.73,3.37-5.11,1.11-1.38,2.26-2.55,3.43-3.52,1.82,0,3.31.88,4.47,2.64,1.15,1.76,1.73,4.06,1.73,6.9,0,2.47-.38,4.85-1.12,7.14-.75,2.29-1.77,4.34-3.07,6.14-1.3,1.8-2.76,3.23-4.38,4.28-1.62,1.05-3.32,1.58-5.11,1.58-.81,0-1.68-.06-2.61-.18-.93-.12-1.84-.29-2.73-.52-.89-.22-1.7-.48-2.43-.76L0,57.82ZM15.07,36.79c-.49,0-1.1.44-1.85,1.31-.75.87-1.61,2.13-2.58,3.77-.97,1.64-2.03,3.64-3.16,5.99-1.13,2.35-2.33,4.98-3.59,7.9,1.01.36,2.21.69,3.59.97,1.38.28,2.45.43,3.22.43,1.22,0,2.37-.62,3.46-1.85,1.09-1.24,1.98-2.85,2.67-4.83.69-1.98,1.03-4.07,1.03-6.26,0-1.3-.13-2.51-.39-3.65-.26-1.13-.61-2.05-1.03-2.74-.43-.69-.88-1.03-1.37-1.03Z"/><path d="M31.42,56.3c.32,0,.77-.22,1.34-.67.57-.45,1.72-1.42,3.46-2.92l.73.06.79,1.46c-1.38,1.38-2.62,2.55-3.74,3.53-1.12.97-2.07,1.7-2.86,2.19s-1.43.73-1.92.73c-1.26,0-1.88-.59-1.88-1.76,0-.16.1-.93.3-2.31.2-1.38.48-3.15.82-5.32.34-2.17.72-4.55,1.12-7.14.4-2.59.81-5.21,1.22-7.84.4-2.63.78-5.08,1.12-7.32.34-2.25.62-4.13.82-5.65.2-1.52.3-2.46.3-2.83,0-1.62-.85-2.43-2.55-2.43h-2.49l.36-2.31c.93,0,1.95-.02,3.07-.06,1.11-.04,2.19-.08,3.22-.12,1.03-.04,2.2-.1,3.5-.18l.55.73c-.53,2.43-1.01,4.71-1.46,6.84-.45,2.13-.94,4.54-1.49,7.23-.55,2.7-1.1,5.54-1.67,8.54-.57,3-1.09,5.98-1.58,8.93-.49,2.96-.91,5.75-1.28,8.39l.18.24Z"/><path d="M48.14,60.68c-1.99,0-3.62-.9-4.89-2.71-1.28-1.8-1.92-4.22-1.92-7.26,0-2.51.37-4.9,1.09-7.17.73-2.27,1.74-4.29,3.04-6.05s2.78-3.16,4.44-4.19c1.66-1.03,3.4-1.55,5.23-1.55,2.15,0,3.84.79,5.08,2.37,1.24,1.58,1.85,3.81,1.85,6.69,0,2.67-.37,5.21-1.09,7.6-.73,2.39-1.73,4.51-3.01,6.35-1.28,1.84-2.76,3.29-4.44,4.35s-3.47,1.58-5.38,1.58ZM50.57,57.34c1.34,0,2.53-.57,3.59-1.7,1.05-1.13,1.87-2.7,2.46-4.71.59-2.01.88-4.26.88-6.78,0-2.71-.44-4.85-1.31-6.41-.87-1.56-2.08-2.34-3.62-2.34-1.3,0-2.47.54-3.52,1.61-1.05,1.07-1.88,2.53-2.46,4.38-.59,1.84-.88,3.94-.88,6.29,0,2.84.46,5.16,1.37,6.96.91,1.8,2.08,2.7,3.5,2.7Z"/><path d="M72.81,60.68c-1.99,0-3.62-.9-4.89-2.71-1.28-1.8-1.92-4.22-1.92-7.26,0-2.51.37-4.9,1.09-7.17.73-2.27,1.74-4.29,3.04-6.05s2.78-3.16,4.44-4.19c1.66-1.03,3.4-1.55,5.23-1.55,2.15,0,3.84.79,5.08,2.37,1.24,1.58,1.85,3.81,1.85,6.69,0,2.67-.37,5.21-1.09,7.6-.73,2.39-1.73,4.51-3.01,6.35-1.28,1.84-2.76,3.29-4.44,4.35s-3.47,1.58-5.38,1.58ZM75.25,57.34c1.34,0,2.53-.57,3.59-1.7,1.05-1.13,1.87-2.7,2.46-4.71.59-2.01.88-4.26.88-6.78,0-2.71-.44-4.85-1.31-6.41-.87-1.56-2.08-2.34-3.62-2.34-1.3,0-2.47.54-3.52,1.61-1.05,1.07-1.88,2.53-2.46,4.38-.59,1.84-.88,3.94-.88,6.29,0,2.84.46,5.16,1.37,6.96.91,1.8,2.08,2.7,3.5,2.7Z"/><path d="M124.36,56.3c.2,0,.43-.07.7-.21.26-.14.71-.48,1.34-1,.63-.53,1.57-1.32,2.83-2.37l.73.06.79,1.46c-1.54,1.46-2.88,2.67-4.01,3.62-1.13.95-2.08,1.66-2.83,2.13-.75.47-1.35.7-1.79.7-1.26,0-1.88-.59-1.88-1.76,0-.73.17-1.71.52-2.95.34-1.24.76-2.6,1.25-4.1.49-1.5.97-3.01,1.46-4.53s.9-2.94,1.25-4.25c.34-1.32.52-2.38.52-3.19,0-.73-.19-1.33-.58-1.79-.39-.47-.88-.7-1.49-.7-.85,0-1.92.75-3.22,2.25-1.3,1.5-2.69,3.58-4.19,6.23-1.5,2.65-3,5.74-4.5,9.27l-.73,3.95c0,.12-.25.29-.76.52-.51.22-1.05.43-1.64.61-.59.18-1.04.27-1.37.27l-.42-.55c.4-1.74.76-3.3,1.06-4.68.3-1.38.63-2.88.97-4.5.34-1.62.67-3.19.97-4.71.3-1.52.56-2.84.76-3.95.2-1.11.3-1.85.3-2.22,0-.73-.19-1.33-.58-1.79-.39-.47-.88-.7-1.49-.7-.81,0-1.81.69-3.01,2.07-1.2,1.38-2.47,3.31-3.83,5.8-1.36,2.49-2.73,5.38-4.1,8.66l-.67,5.17c0,.12-.25.29-.76.52-.51.22-1.05.43-1.64.61-.59.18-1.04.27-1.37.27l-.43-.55c.32-1.98.61-3.77.85-5.35.24-1.58.52-3.28.82-5.11.3-1.82.58-3.58.82-5.26.24-1.68.45-3.13.61-4.35.16-1.22.24-1.98.24-2.31,0-.85-.2-1.47-.61-1.85-.41-.38-1.07-.58-2.01-.58h-2.49l.43-2.31c.93,0,1.95-.02,3.07-.06,1.11-.04,2.19-.08,3.22-.12,1.03-.04,2.22-.1,3.56-.18l.55.73c-.53,1.66-.99,3.18-1.4,4.56-.41,1.38-.82,2.93-1.25,4.65-.43,1.72-.78,3.47-1.06,5.26l.18.18c2.07-4.13,4.13-7.58,6.2-10.33,2.07-2.75,4.03-4.68,5.9-5.77,1.3,0,2.4.56,3.31,1.67.91,1.11,1.37,2.44,1.37,3.98,0,.53-.12,1.35-.36,2.46-.24,1.11-.54,2.27-.88,3.46-.34,1.2-.76,2.64-1.25,4.35l.18.18c2.03-3.97,4.13-7.36,6.32-10.18,2.19-2.82,4.27-4.79,6.26-5.93,1.3,0,2.37.54,3.22,1.61.85,1.07,1.28,2.42,1.28,4.04,0,1.09-.22,2.43-.67,4.01-.45,1.58-.97,3.25-1.58,5.01-.61,1.76-1.21,3.49-1.79,5.17-.59,1.68-1.04,3.17-1.37,4.47l.18.24Z"/></g></svg>